<?xml version="1.0" encoding="utf-8"?>
<!-- Generator: Adobe Illustrator 18.0.0, SVG Export Plug-In . SVG Version: 6.00 Build 0)  -->
<!DOCTYPE svg PUBLIC "-//W3C//DTD SVG 1.1//EN" "http://www.w3.org/Graphics/SVG/1.1/DTD/svg11.dtd">
<svg version="1.1" id="Layer_1" xmlns="http://www.w3.org/2000/svg" xmlns:xlink="http://www.w3.org/1999/xlink" x="0px" y="0px"
	 viewBox="18 108 576 576" enable-background="new 18 108 576 576" xml:space="preserve">
<g>
	<path fill="#FFFFFF" d="M149.6,434.8c5.1,7.2,13.7,12.3,23.1,12.3c11.8,0,23.3-9.1,23.3-22.5c0-12.9-10.7-22.8-24.4-22.8
		c-5.1,0-10.2,1.3-15,3.5v-14.2l23.3-27.6h-41.5v-21.4H214v14.2l-22.5,27.6c17.2,6.7,28.7,21.4,28.7,40.2c0,26.3-20.6,44-46.4,44
		c-15.5,0-30.3-7-41.3-19.3L149.6,434.8z"/>
	<path fill="#FFFFFF" d="M305.9,342.3L282.6,382h1.6c23.6,0,43.4,18,43.4,42.9c0,24.1-20.1,43.7-44.2,43.7
		c-23.3,0-45.6-16.6-45.6-42.3c0-12.3,5.6-23.3,12.3-34.3l29.2-49.3h26.5V342.3z M260.9,426c0,11.8,9.9,21.2,22,21.2
		c12.3,0,20.9-9.6,20.9-21.7c0-11.8-8.8-22.2-22.2-22.2c-4.6,0-8.6,0.8-13.4,2.9C265.2,410.9,260.9,417.6,260.9,426z"/>
	<path fill="#FFFFFF" d="M388.2,340.7c31.9,0,43.4,28.7,43.4,64.1s-11.8,64.1-43.4,64.1c-31.9,0-43.4-28.7-43.4-64.1
		C344.5,369.1,356.3,340.7,388.2,340.7z M388.2,361.9c-14.5,0-19.6,19.3-19.6,42.6c0,23.3,5.1,42.6,19.6,42.6
		c14.5,0,19.6-19.3,19.6-42.6C407.5,381.2,402.4,361.9,388.2,361.9z"/>
	<path fill="#FFFFFF" d="M473.4,331.6c10.7,0,19.6,8.6,19.6,19.6c0,10.7-8.6,19.6-19.6,19.6c-10.7,0-19.6-8.6-19.6-19.6
		C453.9,340.4,462.4,331.6,473.4,331.6z M473.4,356.5c2.9,0,5.4-2.4,5.4-5.4c0-2.9-2.4-5.4-5.4-5.4s-5.4,2.4-5.4,5.4
		C468.1,354.4,470.5,356.5,473.4,356.5z"/>
</g>
<g>
	<path fill="#FFFFFF" d="M306,684C147.3,684,18,554.7,18,396s129.3-288,288-288c65.3,0,127,21.3,178.2,61.7l-17.5,22.2
		c-46.3-36.3-101.8-55.6-160.6-55.6C162.7,136.3,46.3,252.7,46.3,396S162.7,655.7,306,655.7S565.7,539.1,565.7,396
		c0-60.5-21.3-119.5-60.1-166.2l21.8-18.1c42.9,51.5,66.7,117,66.7,184.1C594,554.7,464.7,684,306,684z"/>
	<polygon fill="#FFFFFF" points="490.4,193.3 499.4,281 576.3,221.6 	"/>
</g>
</svg>
